<svg xmlns="http://www.w3.org/2000/svg" width="107" height="71"><path d="M10 0v53H0V0zm11 0h15.754c6.01 0 9.893.954 12.458 3.02 3.004 2.463 4.69 6.515 4.69 11.203 0 3.656-1.026 6.675-3.078 9.059-1.393 1.51-2.492 2.225-5.13 3.178 2.932.715 4.25 1.351 5.79 2.86C53.754 31.547 55 34.805 55 38.857c0 4.927-1.905 9.297-5.055 11.601C47.38 52.285 44.375 53 39.026 53H21zm10.04 8.264v14.223h4.03c5.935 0 8.719-2.304 8.719-7.23 0-2.702-1.172-5.007-2.931-5.96-1.392-.715-3.444-1.033-6.302-1.033zm0 22.328v14.383h4.909c3.444 0 5.056-.318 6.52-1.43 1.613-1.193 2.419-3.1 2.419-5.642 0-2.861-.952-4.848-2.784-6.04-1.54-.953-3.078-1.27-6.742-1.27H31.04zM80.472 12.94l-6.974 21.776h13.874zm-9.6 30.613l-3 9.072H57L74.249 0h12.824L100 41.348 93.027 53l-2.955-9.448H70.874zM93 59l14 6-14 6z" fill="#F8E71C"/></svg>