<svg xmlns="http://www.w3.org/2000/svg" width="70" height="48"><path d="M61.823 1.279c3.023.824 5.357 3.146 6.119 6.087a85.178 85.178 0 0 1 1.452 16.217 85.279 85.279 0 0 1-1.452 15.976c-.762 2.941-3.096 5.262-6.119 6.087-5.425 1.401-27.125 1.401-27.125 1.401s-21.7 0-27.125-1.401c-2.96-.781-5.281-2.996-6.121-5.843a85.26 85.26 0 0 1-1.45-16.22 85.302 85.302 0 0 1 1.45-16.097c.764-2.939 3.098-5.261 6.119-6.087C12.996 0 34.696 0 34.696 0s21.7 0 27.127 1.279zM26.27 13.436v20l22-10z" fill="#FFF"/></svg>