<svg width="24" height="24" fill="none" xmlns="http://www.w3.org/2000/svg"><path d="M21 21V3H3v18h18z" stroke="#404040" stroke-width="2" stroke-linecap="round" stroke-linejoin="round"/><path fill-rule="evenodd" clip-rule="evenodd" d="M11 5H9v2H7V5H5v2h2v2H5v2h2v2H5v2h2v2H5v2h2v-2h2v2h2v-2h2v2h2v-2h2v2h2v-2h-2v-2h2v-2h-2v-2h2V9h-2V7h2V5h-2v2h-2V5h-2v2h-2V5zm0 4V7H9v2H7v2h2v2H7v2h2v2h2v-2h2v2h2v-2h2v-2h-2v-2h2V9h-2V7h-2v2h-2zm0 2V9H9v2h2zm2 0h-2v2H9v2h2v-2h2v2h2v-2h-2v-2zm0 0h2V9h-2v2z" fill="#404040"/></svg>