<svg xmlns="http://www.w3.org/2000/svg" width="139" height="134"><path d="M 26.096 0 L 5.87 0.033 C 2.678 0.038 0.086 2.541 0.08 5.624 L 0 50.277 C -0.006 53.36 2.577 55.855 5.769 55.85 L 40.443 55.793 C 43.635 55.788 46.227 53.285 46.232 50.202 L 46.288 19.503 Z" transform="translate(57.64 5.159) rotate(-16 23.144 27.925)" fill="transparent" stroke-width="5.81" stroke="rgb(255, 255, 255)" stroke-linecap="round" stroke-linejoin="round"></path><path d="M 0.035 0 L 0 20.344 L 20.233 20.31" transform="translate(76.108 4.156) rotate(-16 10.117 10.172)" fill="transparent" stroke-width="5.81" stroke="rgb(255, 255, 255)" stroke-linecap="round" stroke-linejoin="round"></path><path d="M 37.442 0.114 L 8.295 0 C 3.696 -0.018 -0.018 3.65 0 8.191 L 0.26 73.981 C 0.277 78.523 4.02 82.22 8.619 82.238 L 58.585 82.432 C 63.184 82.45 66.898 78.783 66.88 74.241 L 66.702 29.01 Z" transform="translate(32.282 36.376) rotate(-16 33.44 41.216)" fill="rgb(255, 255, 255)" stroke-width="8.32" stroke="rgb(255, 255, 255)" stroke-linecap="round" stroke-linejoin="round"></path><path d="M 0 0 L 0.448 35.19 L 33.707 34.71" transform="translate(60.753 27.969) rotate(-16 16.853 17.595)" fill="transparent" stroke-width="6.6" stroke="rgb(255, 234, 0)" stroke-linejoin="round"></path></svg>