<svg xmlns="http://www.w3.org/2000/svg" width="48" height="48"><path d="M 0 6 C 0 2.686 2.686 0 6 0 L 42 0 C 45.314 0 48 2.686 48 6 L 48 42 C 48 45.314 45.314 48 42 48 L 6 48 C 2.686 48 0 45.314 0 42 Z M 21.235 27.579 L 21.235 39 L 27.824 39 L 27.824 27.579 C 27.824 25.777 29.298 24.316 31.118 24.316 C 32.937 24.316 34.412 25.777 34.412 27.579 L 34.412 39 L 41 39 L 41 27.579 C 41 22.172 36.576 17.789 31.118 17.789 C 25.66 17.789 21.235 22.172 21.235 27.579 Z M 15.588 19.421 L 9 19.421 L 9 39 L 15.588 39 Z M 12.294 14.526 C 14.113 14.526 15.588 13.065 15.588 11.263 C 15.588 9.461 14.113 8 12.294 8 C 10.475 8 9 9.461 9 11.263 C 9 13.065 10.475 14.526 12.294 14.526 Z" fill="rgb(64, 64, 64)"></path></svg>