<svg width="24" height="24" viewBox="0 0 24 24" fill="none" xmlns="http://www.w3.org/2000/svg">
<path d="M21 21V3H3V21H21Z" stroke="#404040" stroke-width="2" stroke-linecap="round" stroke-linejoin="round"/>
<path fill-rule="evenodd" clip-rule="evenodd" d="M11 5H9V7H7V5H5V7H7V9H5V11H7V13H5V15H7V17H5V19H7V17H9V19H11V17H13V19H15V17H17V19H19V17H17V15H19V13H17V11H19V9H17V7H19V5H17V7H15V5H13V7H11V5ZM11 9V7H9V9H7V11H9V13H7V15H9V17H11V15H13V17H15V15H17V13H15V11H17V9H15V7H13V9H11ZM11 11V9H9V11H11ZM13 11H11V13H9V15H11V13H13V15H15V13H13V11ZM13 11H15V9H13V11Z" fill="#404040"/>
</svg>
